<svg xmlns="http://www.w3.org/2000/svg" width="28" height="29" fill="none" xmlns:v="https://vecta.io/nano"><path fill="#252525" d="M0 0h28v29H0z"/><g clip-path="url(#A)"><path fill="#fff" d="M-707-5497H731V4653H-707z"/><g fill="#e3b873"><path d="M21.892 22.053c-.747.7-.747 1.867 0 2.613.373.373.84.56 1.307.56s.933-.187 1.307-.56c.747-.7.747-1.867 0-2.613-.7-.747-1.867-.747-2.613 0zm1.96 2.007a.9.9 0 0 1-1.307 0 .9.9 0 0 1 0-1.307.92.92 0 0 1 .653-.28.92.92 0 0 1 .653.28.9.9 0 0 1 0 1.307zm3.828-1.447l-8.4-8.4 8.12-8.12a2.06 2.06 0 0 0 0-2.893L25.02.82a2.05 2.05 0 0 0-1.447-.607c-.56 0-1.073.233-1.447.607l-8.12 8.12L5.7.633C5.186.12 4.253.12 3.74.633L.426 3.946c-.56.513-.56 1.4 0 1.96l8.307 8.307-7.5 7.5c-.14.062-.215.188-.255.35l-.98 5.6c0 .187.047.327.14.42s.187.14.327.14h.093l5.384-.995c.037.01.077.015.123.015.14 0 .28-.047.327-.14l7.607-7.607 8.4 8.4c.233.233.513.327.793.327s.56-.093.747-.327l3.733-3.733a1.1 1.1 0 0 0 0-1.54zM6.073 26.066L4.44 24.433l15.516-15.47 1.6 1.6L6.073 26.066zM22.78 1.473a1.16 1.16 0 0 1 1.587 0l2.38 2.38a1.16 1.16 0 0 1 0 1.587l-2.52 2.52-3.967-3.967 2.52-2.52zm-3.173 3.173l3.967 3.967-1.307 1.307L18.3 5.953l1.307-1.307zM9 13.163l1.003-1.003a.45.45 0 0 0 0-.653.45.45 0 0 0-.653 0l-1.014.993-.677-.677L9.293 10.2a.45.45 0 0 0 0-.653.45.45 0 0 0-.653 0L7.006 11.18l-.653-.653.98-.98a.45.45 0 0 0 0-.653.45.45 0 0 0-.653 0l-.98.98-.653-.653L6.68 7.586a.45.45 0 0 0 0-.653.45.45 0 0 0-.653 0L4.393 8.566l-.7-.7.98-.98a.45.45 0 0 0 0-.653.45.45 0 0 0-.653 0l-.98.98-.653-.653L4.02 4.926a.45.45 0 0 0 0-.653.45.45 0 0 0-.653 0L1.733 5.906l-.653-.653a.45.45 0 0 1 0-.653l3.313-3.313c.093-.093.187-.14.327-.14a.51.51 0 0 1 .327.14l8.307 8.307-3.967 3.967L9 13.163zm8.657-6.5L19.3 8.296 3.774 23.766l-1.6-1.6L17.646 6.653zM1.78 23.08L3.3 24.6a.5.5 0 0 0 .102.15L5.1 26.446l-4.02.693.7-4.06zm25.247.42l-3.733 3.733c-.047.047-.187.047-.233 0l-4.83-4.83 1.657-1.657a.462.462 0 1 0-.653-.653l-1.657 1.657-.677-.677.98-.98a.462.462 0 1 0-.653-.653l-.98.98-.653-.653 1.633-1.633a.462.462 0 1 0-.653-.653l-1.633 1.633-.28-.28 3.967-3.967 8.4 8.4c.047.047.047.187 0 .233z"/></g></g><defs><clipPath id="A"><path fill="#fff" d="M-707-5497H731V4653H-707z"/></clipPath></defs></svg>