<svg xmlns="http://www.w3.org/2000/svg" width="29" height="29" fill="none" xmlns:v="https://vecta.io/nano"><g clip-path="url(#A)"><g fill="#e3b873"><path d="M14.5 9.355a3.28 3.28 0 0 0 3.274-3.274A3.28 3.28 0 0 0 14.5 2.806a3.28 3.28 0 0 0-3.274 3.274A3.28 3.28 0 0 0 14.5 9.355zm0-5.613a2.34 2.34 0 0 1 .469 4.629V6.548h-.936v1.824a2.34 2.34 0 0 1 .467-4.63zm-.468 1.403a.47.47 0 0 1 .468-.468.47.47 0 0 1 .468.468.47.47 0 0 1-.468.468.47.47 0 0 1-.468-.468z"/></g><path d="M14.5 6.698v1.75" stroke="#e3b873" stroke-linecap="round"/><path d="M27.168 22.137L24.8 21.61v-.684a3.27 3.27 0 0 0 1.403-2.683v-.936c0-1.646-1.222-3.01-2.806-3.237v-2.225l-4.323-1.73.668-.667-.668-1.002a5.08 5.08 0 0 0 .335-.81l1.18-.237V4.762l-1.18-.236c-.088-.28-.2-.55-.335-.8l.668-1.002L17.868.848l-1.002.668c-.26-.135-.53-.247-.8-.336L15.82 0H13.18l-.236 1.18a5.13 5.13 0 0 0-.81.335L11.133.848 9.268 2.713l.668 1.002a5.09 5.09 0 0 0-.335.81l-1.18.237V7.4l1.18.236c.088.28.2.55.335.8l-.668 1.002.668.667-4.322 1.73v2.225c-1.584.228-2.806 1.59-2.806 3.237v.935a3.27 3.27 0 0 0 1.403 2.683v.683l-2.378.53C.753 22.377 0 23.316 0 24.42V29h29v-4.58c0-1.104-.753-2.043-1.832-2.283zm-3.313-.282c-.116.18-.438.596-.935.596s-.82-.418-.936-.596v-.477a3.27 3.27 0 0 0 .936.138c.325 0 .64-.05.935-.138v.477zm1.403-4.55v.935a2.34 2.34 0 0 1-2.339 2.339 2.34 2.34 0 0 1-2.339-2.339v-.935a2.34 2.34 0 0 1 2.339-2.339 2.34 2.34 0 0 1 2.339 2.339zm-2.806-4.83v1.592c-1.584.228-2.806 1.59-2.806 3.237v.935a3.27 3.27 0 0 0 1.403 2.683v.683l-2.34.52-2.34-.52v-.683a3.27 3.27 0 0 0 1.403-2.683v-.935c0-1.646-1.222-3.01-2.806-3.237V12.16h.85l.236-1.18a5.12 5.12 0 0 0 .81-.335l1.002.668.477-.478 4.107 1.642zm-2.806 15.587h-10.3V24.42c0-.663.452-1.226 1.1-1.37l2.43-.54c.268.354.8.877 1.617.877s1.35-.523 1.617-.877l2.43.54c.647.144 1.1.707 1.1 1.37v3.645zM14.5 14.968a2.34 2.34 0 0 1 2.339 2.339v.935a2.34 2.34 0 0 1-2.339 2.339 2.34 2.34 0 0 1-2.339-2.339v-.935a2.34 2.34 0 0 1 2.339-2.339zm0 6.548c.325 0 .64-.05.935-.138v.477c-.116.18-.438.597-.935.597s-.82-.418-.935-.596v-.477a3.27 3.27 0 0 0 .935.138zM9.355 6.633V5.53l.997-.2.073-.285c.1-.392.254-.766.46-1.11l.15-.254-.564-.847.78-.78.847.565.254-.15a4.17 4.17 0 0 1 1.111-.46l.285-.073.2-.998h1.104l.2.997.285.073c.392.1.766.254 1.11.46l.253.15.847-.564.78.78-.565.847.15.254a4.17 4.17 0 0 1 .46 1.111l.073.285.998.2v1.104l-.997.2-.073.285c-.1.392-.254.766-.46 1.11l-.15.254.564.847-.78.78-.847-.565-.254.15a4.17 4.17 0 0 1-1.111.46l-.285.073-.2.998h-1.104l-.2-.997-.285-.073c-.392-.1-.766-.254-1.11-.46l-.254-.15-.847.564-.78-.78.565-.847-.15-.254a4.17 4.17 0 0 1-.46-1.111l-.073-.285-.998-.2zm1.3 4.203l.478.477 1.002-.668a5.09 5.09 0 0 0 .81.335l.236 1.18h.85v1.908c-1.584.228-2.806 1.59-2.806 3.237v.935a3.27 3.27 0 0 0 1.403 2.683v.683l-2.34.52-2.34-.52v-.683a3.27 3.27 0 0 0 1.403-2.683v-.935c0-1.646-1.222-3.01-2.806-3.237v-1.592l4.107-1.642zm-6.913 7.407v-.935a2.34 2.34 0 0 1 2.339-2.339 2.34 2.34 0 0 1 2.339 2.339v.935a2.34 2.34 0 0 1-2.339 2.339 2.34 2.34 0 0 1-2.339-2.339zm2.34 3.274c.325 0 .64-.05.935-.138v.477c-.116.18-.438.597-.935.597s-.82-.42-.935-.596v-.477c.296.09.6.138.935.138zM.935 24.42c0-.663.452-1.226 1.1-1.37l2.43-.54c.267.354.8.877 1.617.877s1.35-.523 1.617-.877l1.366.304a2.32 2.32 0 0 0-.645 1.606v3.645H.935V24.42zm27.13 3.645H20.58V24.42a2.32 2.32 0 0 0-.645-1.606l1.366-.303c.267.354.8.877 1.617.877s1.35-.523 1.617-.877l2.43.54c.647.144 1.1.707 1.1 1.37v3.645z" fill="#e3b873"/></g><defs><clipPath id="A"><path fill="#fff" d="M0 0h29v29H0z"/></clipPath></defs></svg>