<svg xmlns="http://www.w3.org/2000/svg" width="28" height="28" fill="none" xmlns:v="https://vecta.io/nano"><path d="M26.406 21.143c-.58-.41-1.253-.63-1.93-.665-2.555-1.673-4.23-2.93-5.206-3.906l-3.002-3.002 1.822-2.04a3.12 3.12 0 0 0 1.087.376 3.55 3.55 0 0 0 .653.047c.373 0 .466 0 .84.327-.187.14-.28.373-.28.606a1.03 1.03 0 0 0 .28.7L22.3 15.22c.233.28.606.42.98.42s.746-.14.98-.466l3.312-3.312c.28-.233.42-.606.42-.98s-.14-.7-.42-.98L25.94 8.27a.92.92 0 0 0-.653-.28c-.233 0-.466.14-.653.28-.373-.326-.373-.42-.373-.793 0-.187 0-.42-.093-.7-.093-.653-.42-1.306-.933-1.82l-1.68-1.68c-.98-.98-1.446-1.446-2.705-2.006-2.705-1.26-5.457-1.026-9.47.793a.42.42 0 0 0-.28.513c.047.233.233.373.466.373h.606c2.052 0 3.125 0 4.99 1.866.817.817.84 2.07.108 2.99-.1.015-.174.06-.248.134l-2.072 2.313L11.386 8.7c-1.72-1.72-2.932-3.35-3.864-5.164-.05-.918-.417-1.776-1.08-2.44C5.65.294 4.53-.08 3.4.014c-.14.047-.28.14-.326.233-.093.14-.093.326 0 .466L4.4 3.046c-.28.606-.933.98-1.586.933L1.45 1.74c-.047-.14-.233-.233-.373-.233-.14-.047-.28.047-.373.187-1.12 1.68-.7 3.918.98 5.084a3.7 3.7 0 0 0 1.89.69l.022.01c1.82.933 3.452 2.146 5.177 3.87l1.706 1.667L.565 24.082c-.373.373-.56.886-.56 1.4s.187.98.56 1.353l.653.653c.373.326.84.513 1.306.513a1.95 1.95 0 0 0 1.353-.56l9.904-11.086 2.877 2.877c.98.98 2.237 2.702 3.913 5.217a3.69 3.69 0 0 0 1.078 2.386c.7.7 1.633 1.073 2.612 1.073h.373c.14 0 .28-.093.373-.233s.093-.326 0-.466l-1.353-2.285c.326-.606.933-.98 1.633-.933l1.306 2.24c.047.14.233.233.373.233.187-.047.326-.093.42-.233 1.12-1.68.653-3.918-.98-5.084zM15.77 4.072C14.278 2.626 13.16 2.16 11.9 2.02c2.66-.84 4.618-.793 6.577.093 1.12.466 1.493.84 2.472 1.82l1.68 1.68c.373.373.606.84.653 1.306a2.68 2.68 0 0 1 .047.56c0 .513.047.886.606 1.446a1.03 1.03 0 0 0 .7.28c.28 0 .513-.093.653-.28l1.633 1.633c.093.093.14.187.14.326s-.047.233-.14.326l-3.312 3.312a.45.45 0 0 1-.653 0l-1.633-1.633c.187-.14.28-.373.233-.653a1.03 1.03 0 0 0-.28-.7c-.56-.56-.933-.606-1.446-.606-.14 0-.326 0-.56-.047-.513-.047-.933-.28-1.306-.653l-2.006-2.006c1.026-1.26.933-3.032-.187-4.15zM1.125 2.953l.98 1.68c.093.14.233.233.373.233h.233c1.073.047 2.052-.513 2.52-1.446l.093-.233a.35.35 0 0 0 0-.42L4.297.994c.56.093 1.073.373 1.493.793.48.52.79 1.18.807 1.888a.48.48 0 0 0-.014.118 2.72 2.72 0 0 1-.074.63 2.86 2.86 0 0 1-1.185 1.656c-.933.606-2.192.606-3.125-.047a2.84 2.84 0 0 1-1.073-3.079zm8.302 7.743c-1.4-1.446-2.8-2.565-4.29-3.452.233-.093.513-.233.746-.373.7-.466 1.166-1.073 1.446-1.82.886 1.493 2.006 2.892 3.405 4.29l1.602 1.602-1.256 1.402-1.652-1.652zM3.224 26.74c-.373.373-.98.42-1.353.047l-.653-.606a.92.92 0 0 1-.28-.653c0-.28.093-.513.326-.746l.264-.296.67.67c.093.093.187.14.326.14s.233-.047.326-.14a.45.45 0 0 0 0-.653l-.705-.705.616-.7.742.742c.093.093.187.14.326.14s.233-.047.326-.14a.45.45 0 0 0 0-.653l-.778-.778L15.376 8.994l1.96 1.96-1.925 2.153a.48.48 0 0 0-.152.107l-1.866 2.1a.48.48 0 0 0-.114.178L3.224 26.74zm11.195-11.1l1.277-1.43 3.014 3.014c.84.886 2.286 2.006 4.384 3.405-.28.093-.56.233-.84.42-.58.362-.99.864-1.274 1.42l-.012.024-.05.1-.066.145-.042.1-.05.124-.765-1.1.625-.625a.45.45 0 1 0-.653-.653l-.52.52-.562-.744.43-.43a.45.45 0 1 0-.653-.653l-.356.356-.95-1.056-2.938-2.938zm12.5 9.328l-.98-1.68c-.093-.14-.233-.233-.373-.233h-.233c-1.073-.093-2.052.513-2.52 1.446l-.093.233a.35.35 0 0 0 0 .42l1.026 1.773c-.56-.093-1.073-.373-1.493-.793-.472-.51-.777-1.155-.805-1.847.008-.034.013-.07.013-.112 0-.59.188-1.144.514-1.613.2-.28.452-.524.745-.72.466-.326.98-.466 1.54-.466s1.12.186 1.586.513a2.84 2.84 0 0 1 1.073 3.078z" fill="#e3b873"/></svg>